<svg xmlns="http://www.w3.org/2000/svg" enable-background="new 0 0 220 264.516" viewBox="0 0 220 264.516"><path d="M109.264 165.074l-6.359 77.969c2.32.12 4.683.231 7.095.331h0c2.411-.1 4.774-.211 7.094-.331l-6.359-77.969H109.264zM79.954 146.435v-20.122c-1.149-.255-2.268-.638-3.287-1.158-5.273-2.658-8.209-6.938-9.741-10.059-1.85-3.771-2.792-7.942-2.801-12.399.014-4.849 1.147-11.945 6.475-18.3 4.434-5.382 11.432-8.731 18.917-9.106.383-.042.772-.066 1.166-.066h15.772c-.588-.095-1.174-.203-1.755-.338-3.996-.93-7.626-2.771-10.671-5.347h-6.93c.433-.91.682-1.924.682-2.999 0-3.866-3.134-7-7-7-3.576 0-6.521 2.684-6.943 6.146-1.247-1.148-2.906-1.854-4.734-1.854-3.866 0-7 3.134-7 7 0 2.176.993 4.119 2.549 5.403-4.483 3.057-9.7 7.497-15.32 13.971C23 120.54 0 224.873 0 224.873s19.985 10.323 72.267 15.808L79.954 146.435zM80.781 62.603c2.175 0 3.938 1.763 3.938 3.938s-1.763 3.938-3.938 3.938-3.938-1.763-3.938-3.938S78.606 62.603 80.781 62.603zM65.166 70.832c0-2.175 1.763-3.938 3.938-3.938s3.938 1.763 3.938 3.938-1.763 3.938-3.938 3.938S65.166 73.007 65.166 70.832zM129.317 75.225c.396 0 .786.025 1.171.067 7.484.373 14.482 3.723 18.933 9.125 5.308 6.334 6.44 13.431 6.454 18.265-.009 4.471-.951 8.643-2.801 12.414-1.535 3.122-4.473 7.399-9.753 10.067-1.015.515-2.129.897-3.275 1.151v20.121l7.687 94.247C200.015 235.196 220 224.873 220 224.873S197 120.54 170.667 90.206c-5.623-6.477-10.841-10.918-15.326-13.976 1.554-1.284 2.544-3.226 2.544-5.399 0-3.866-3.134-7-7-7-1.828 0-3.487.707-4.734 1.854-.422-3.462-3.366-6.146-6.943-6.146-3.866 0-7 3.134-7 7 0 1.075.249 2.089.682 2.999h-5.941c-3.475 2.941-7.725 4.943-12.378 5.685H129.317zM150.885 66.895c2.175 0 3.938 1.763 3.938 3.938s-1.763 3.938-3.938 3.938-3.938-1.763-3.938-3.938S148.71 66.895 150.885 66.895zM135.27 66.54c0-2.175 1.763-3.938 3.938-3.938s3.938 1.763 3.938 3.938-1.763 3.938-3.938 3.938S135.27 68.715 135.27 66.54z"/><path d="M132.39 55.158c1.128-4.844.594-9.686-1.223-13.933l-.766.136c-.466.083-11.507 2.021-20.401 2.021-8.502 0-18.959-1.77-20.272-1.999-.475 1.139-.866 2.33-1.155 3.571-2.818 12.1 4.707 24.193 16.808 27.01C117.479 74.783 129.572 67.258 132.39 55.158zM112.792 59.068c0 0 4.65-4.246 7.48-.809 2.831 3.436 5.259-.203 5.259-.203s1.768 4.549-3.894 5.762c-5.662 1.215-8.846-1.213-8.846-1.213s-.848-.685-.785-1.873S112.792 59.068 112.792 59.068zM95.432 58.057c0 0 2.427 3.639 5.257.203 2.831-3.438 7.482.809 7.482.809s.722.477.784 1.664-.784 1.873-.784 1.873-3.185 2.428-8.846 1.213C93.663 62.605 95.432 58.057 95.432 58.057zM110 41.083c8.795 0 20-1.986 20-1.986l4.201-21.483c.039.002.074.012.112.012 1.702 0 3.083-1.381 3.083-3.084 0-1.702-1.381-3.083-3.083-3.083-1.703 0-3.084 1.381-3.084 3.083 0 .929.419 1.752 1.068 2.317-2.319 2.997-5.86 6.351-10.099 6.351-5.224 0-8.994-9.496-10.865-15.539 1.526-.549 2.625-1.996 2.625-3.712C113.959 1.772 112.185 0 110 0c-2.185 0-3.959 1.772-3.959 3.958 0 1.716 1.099 3.163 2.625 3.712-1.871 6.043-5.642 15.539-10.865 15.539-4.237 0-7.778-3.354-10.099-6.351.649-.565 1.069-1.389 1.069-2.317 0-1.702-1.381-3.083-3.083-3.083-1.703 0-3.084 1.381-3.084 3.083 0 1.703 1.381 3.084 3.084 3.084.038 0 .073-.01.11-.011L90 39.097C90 39.097 101.205 41.083 110 41.083zM114.142 115.793c-.422-.019-.846-.049-1.267-.049-7.56.036-12.541 2.862-17.813 5.854-.878.498-1.754.993-2.635 1.475l-.76.381c-2.016 1.019-4.529 2.284-8.543 2.403h-.033-.113c-.008 0-.016-.001-.025-.001v16.348C97.812 139.63 107.76 127.732 114.142 115.793z"/><path d="M137.046 125.86c-.013 0-.027.002-.04.002h-.014-.076c-2.975-.036-5.107-.834-6.877-1.582-1.744-.77-3.211-1.602-4.504-2.336l-.523-.299c-1.523-.869-3.085-1.747-4.71-2.555-7.371 13.764-19.25 27.706-37.573 30.216l-8.306 101.841c-.555 6.807 4.514 12.773 11.318 13.327 6.805.554 12.773-4.51 13.328-11.317l7.429-91.083h7.002l7.428 91.083c.555 6.808 6.523 11.872 13.328 11.317 6.805-.555 11.873-6.52 11.318-13.327l-8.53-104.591V125.86zM129.278 96.559c-.316 1.117-.688 2.357-1.107 3.676 2 .944 3.819 1.919 5.499 2.866.33.188.646.37.953.545l2.018 1.263c-.151.688-.364 1.301-.608 1.783-.037.072-.072.142-.109.208-.879-.478-2.027-1.133-3.334-1.881-1.185-.669-2.528-1.407-4.017-2.151.474 1.456.637 3.036.394 4.65-.727 4.826-4.862 8.486-9.702 8.669 2.623 1.14 5.007 2.504 7.354 3.845 1.355.767 2.703 1.529 4.277 2.223 1.574.666 3.434 1.377 6.044 1.408.022 0 .044 0 .065 0 1.547 0 3.351-.358 4.963-1.177 3.945-1.993 6.711-5.251 8.412-8.71 1.711-3.489 2.486-7.266 2.494-11.084-.016-5.621-1.703-11.512-5.769-16.366-3.291-3.995-8.378-6.911-14.276-7.791C132.363 83.624 131.076 90.196 129.278 96.559z"/><path d="M69.619,113.775c1.699,3.462,4.471,6.722,8.41,8.708c1.611,0.821,3.412,1.178,4.949,1.178c0.027,0,0.055,0,0.083-0.001
		c3.948-0.116,6.17-1.465,8.313-2.518c6.193-3.372,12.022-7.554,21.502-7.597c1.5,0,3.094,0.111,4.813,0.368
		c4.369,0.657,8.443-2.353,9.1-6.722c0.656-4.372-2.353-8.442-6.723-9.099c-2.498-0.376-4.896-0.548-7.189-0.548
		c-9.736-0.018-17.395,3.151-22.736,5.978c-2.541,1.339-4.619,2.6-6.066,3.379c-0.037-0.066-0.074-0.137-0.111-0.21
		c-0.243-0.481-0.454-1.095-0.605-1.785l2.019-1.264c1.07-0.611,2.344-1.334,3.738-2.067c7.924-4.193,15.672-6.231,23.68-6.231
		c2.547,0,5.078,0.192,7.601,0.571c0.574,0.086,1.125,0.23,1.66,0.405c0.173-0.578,0.338-1.14,0.487-1.666
		c1.651-5.841,2.842-11.817,3.291-16.43h-35.15c-0.298,0-0.591,0.021-0.88,0.054c-7.006,0.307-13.134,3.471-16.904,8.045
		c-4.068,4.853-5.758,10.749-5.773,16.367C67.133,106.506,67.908,110.287,69.619,113.775z M110.481,86.332
		c1.933,0,3.5,1.567,3.5,3.5s-1.567,3.5-3.5,3.5c-1.933,0-3.5-1.567-3.5-3.5S108.548,86.332,110.481,86.332z"/></svg>